<svg width="47" height="43" viewBox="0 0 47 43" fill="none" xmlns="http://www.w3.org/2000/svg">
<path d="M45.5246 8.09812L30.8155 1.98047L8.57634 10.8922C1.95335 13.9314 -0.309583 24.4903 2.93851 30.3138C5.54283 34.9707 11.0148 37.7648 17.3745 40.2844C19.8227 41.255 22.4173 41.1569 24.5534 40.6373C28.972 39.5687 33.0102 36.3726 33.9661 31.3236C34.5611 28.206 33.9856 25.206 32.6103 22.9805L45.5246 15.4903V8.09812Z" stroke="#22222C" stroke-width="2" stroke-miterlimit="10" stroke-linecap="round" stroke-linejoin="round"/>
<path d="M45.5246 8.09814L23.2561 20.0883V20.0785C20.5153 21.4217 18.2816 24.4021 17.5695 28.1766C16.9063 31.6766 18.0182 35.4021 20.1641 37.755" stroke="#22222C" stroke-width="2" stroke-miterlimit="10" stroke-linecap="round"/>
<path d="M11.8732 13.255L19.7349 17.6471L24.5534 15.2158L16.7502 11.2942L11.8732 13.255Z" stroke="#22222C" stroke-width="2" stroke-miterlimit="10" stroke-linecap="round" stroke-linejoin="round"/>
</svg>
